<mxfile host="Electron" agent="Mozilla/5.0 (Windows NT 10.0; Win64; x64) AppleWebKit/537.36 (KHTML, like Gecko) draw.io/24.7.17 Chrome/128.0.6613.36 Electron/32.0.1 Safari/537.36" version="24.7.17">
  <diagram id="C5RBs43oDa-KdzZeNtuy" name="Page-1">
    <mxGraphModel dx="4200" dy="1871" grid="1" gridSize="10" guides="1" tooltips="1" connect="1" arrows="1" fold="1" page="1" pageScale="1" pageWidth="1200" pageHeight="1600" math="0" shadow="0">
      <root>
        <mxCell id="WIyWlLk6GJQsqaUBKTNV-0" />
        <mxCell id="WIyWlLk6GJQsqaUBKTNV-1" parent="WIyWlLk6GJQsqaUBKTNV-0" />
        <mxCell id="Skrc7gYkLuCT7zbZgpwp-6" value="" style="edgeStyle=orthogonalEdgeStyle;rounded=0;orthogonalLoop=1;jettySize=auto;html=1;" edge="1" parent="WIyWlLk6GJQsqaUBKTNV-1" source="Skrc7gYkLuCT7zbZgpwp-0" target="Skrc7gYkLuCT7zbZgpwp-5">
          <mxGeometry relative="1" as="geometry" />
        </mxCell>
        <mxCell id="Skrc7gYkLuCT7zbZgpwp-0" value="STAR" style="strokeWidth=2;html=1;shape=mxgraph.flowchart.terminator;whiteSpace=wrap;" vertex="1" parent="WIyWlLk6GJQsqaUBKTNV-1">
          <mxGeometry x="79" y="20" width="100" height="60" as="geometry" />
        </mxCell>
        <mxCell id="Skrc7gYkLuCT7zbZgpwp-76" style="edgeStyle=orthogonalEdgeStyle;rounded=0;orthogonalLoop=1;jettySize=auto;html=1;exitX=0.5;exitY=1;exitDx=0;exitDy=0;" edge="1" parent="WIyWlLk6GJQsqaUBKTNV-1" source="Skrc7gYkLuCT7zbZgpwp-5" target="Skrc7gYkLuCT7zbZgpwp-68">
          <mxGeometry relative="1" as="geometry" />
        </mxCell>
        <mxCell id="Skrc7gYkLuCT7zbZgpwp-5" value="List Sembako dengan hargannya" style="whiteSpace=wrap;html=1;strokeWidth=2;" vertex="1" parent="WIyWlLk6GJQsqaUBKTNV-1">
          <mxGeometry x="70" y="109" width="120" height="60" as="geometry" />
        </mxCell>
        <mxCell id="Skrc7gYkLuCT7zbZgpwp-12" value="" style="edgeStyle=orthogonalEdgeStyle;rounded=0;orthogonalLoop=1;jettySize=auto;html=1;" edge="1" parent="WIyWlLk6GJQsqaUBKTNV-1" source="Skrc7gYkLuCT7zbZgpwp-7" target="Skrc7gYkLuCT7zbZgpwp-11">
          <mxGeometry relative="1" as="geometry" />
        </mxCell>
        <mxCell id="Skrc7gYkLuCT7zbZgpwp-7" value="INPUT&lt;div&gt;menu&lt;/div&gt;" style="shape=parallelogram;perimeter=parallelogramPerimeter;whiteSpace=wrap;html=1;fixedSize=1;strokeWidth=2;" vertex="1" parent="WIyWlLk6GJQsqaUBKTNV-1">
          <mxGeometry x="70" y="322" width="120" height="60" as="geometry" />
        </mxCell>
        <mxCell id="Skrc7gYkLuCT7zbZgpwp-51" style="edgeStyle=orthogonalEdgeStyle;rounded=0;orthogonalLoop=1;jettySize=auto;html=1;exitX=1;exitY=0.5;exitDx=0;exitDy=0;" edge="1" parent="WIyWlLk6GJQsqaUBKTNV-1" source="Skrc7gYkLuCT7zbZgpwp-11" target="Skrc7gYkLuCT7zbZgpwp-17">
          <mxGeometry relative="1" as="geometry">
            <Array as="points">
              <mxPoint x="390" y="481" />
              <mxPoint x="390" y="481" />
            </Array>
          </mxGeometry>
        </mxCell>
        <mxCell id="Skrc7gYkLuCT7zbZgpwp-264" value="no" style="edgeLabel;html=1;align=center;verticalAlign=middle;resizable=0;points=[];" vertex="1" connectable="0" parent="Skrc7gYkLuCT7zbZgpwp-51">
          <mxGeometry x="-0.7299" relative="1" as="geometry">
            <mxPoint as="offset" />
          </mxGeometry>
        </mxCell>
        <mxCell id="Skrc7gYkLuCT7zbZgpwp-265" style="edgeStyle=orthogonalEdgeStyle;rounded=0;orthogonalLoop=1;jettySize=auto;html=1;exitX=0.5;exitY=1;exitDx=0;exitDy=0;" edge="1" parent="WIyWlLk6GJQsqaUBKTNV-1" source="Skrc7gYkLuCT7zbZgpwp-11" target="Skrc7gYkLuCT7zbZgpwp-13">
          <mxGeometry relative="1" as="geometry" />
        </mxCell>
        <mxCell id="Skrc7gYkLuCT7zbZgpwp-266" value="yes" style="edgeLabel;html=1;align=center;verticalAlign=middle;resizable=0;points=[];" vertex="1" connectable="0" parent="Skrc7gYkLuCT7zbZgpwp-265">
          <mxGeometry x="-0.2171" y="1" relative="1" as="geometry">
            <mxPoint as="offset" />
          </mxGeometry>
        </mxCell>
        <mxCell id="Skrc7gYkLuCT7zbZgpwp-11" value="menu = 1" style="rhombus;whiteSpace=wrap;html=1;strokeWidth=2;" vertex="1" parent="WIyWlLk6GJQsqaUBKTNV-1">
          <mxGeometry x="90" y="441" width="80" height="80" as="geometry" />
        </mxCell>
        <mxCell id="Skrc7gYkLuCT7zbZgpwp-16" value="" style="edgeStyle=orthogonalEdgeStyle;rounded=0;orthogonalLoop=1;jettySize=auto;html=1;" edge="1" parent="WIyWlLk6GJQsqaUBKTNV-1" source="Skrc7gYkLuCT7zbZgpwp-13" target="Skrc7gYkLuCT7zbZgpwp-15">
          <mxGeometry relative="1" as="geometry" />
        </mxCell>
        <mxCell id="Skrc7gYkLuCT7zbZgpwp-13" value="input username&amp;nbsp;" style="shape=parallelogram;perimeter=parallelogramPerimeter;whiteSpace=wrap;html=1;fixedSize=1;strokeWidth=2;" vertex="1" parent="WIyWlLk6GJQsqaUBKTNV-1">
          <mxGeometry x="70" y="564" width="120" height="60" as="geometry" />
        </mxCell>
        <mxCell id="Skrc7gYkLuCT7zbZgpwp-30" value="" style="edgeStyle=orthogonalEdgeStyle;rounded=0;orthogonalLoop=1;jettySize=auto;html=1;" edge="1" parent="WIyWlLk6GJQsqaUBKTNV-1" source="Skrc7gYkLuCT7zbZgpwp-15" target="Skrc7gYkLuCT7zbZgpwp-29">
          <mxGeometry relative="1" as="geometry" />
        </mxCell>
        <mxCell id="Skrc7gYkLuCT7zbZgpwp-15" value="input password" style="shape=parallelogram;perimeter=parallelogramPerimeter;whiteSpace=wrap;html=1;fixedSize=1;strokeWidth=2;" vertex="1" parent="WIyWlLk6GJQsqaUBKTNV-1">
          <mxGeometry x="70" y="662" width="120" height="60" as="geometry" />
        </mxCell>
        <mxCell id="Skrc7gYkLuCT7zbZgpwp-20" value="" style="edgeStyle=orthogonalEdgeStyle;rounded=0;orthogonalLoop=1;jettySize=auto;html=1;" edge="1" parent="WIyWlLk6GJQsqaUBKTNV-1" source="Skrc7gYkLuCT7zbZgpwp-17" target="Skrc7gYkLuCT7zbZgpwp-19">
          <mxGeometry relative="1" as="geometry" />
        </mxCell>
        <mxCell id="Skrc7gYkLuCT7zbZgpwp-267" value="yes" style="edgeLabel;html=1;align=center;verticalAlign=middle;resizable=0;points=[];" vertex="1" connectable="0" parent="Skrc7gYkLuCT7zbZgpwp-20">
          <mxGeometry x="-0.3968" y="1" relative="1" as="geometry">
            <mxPoint as="offset" />
          </mxGeometry>
        </mxCell>
        <mxCell id="Skrc7gYkLuCT7zbZgpwp-66" value="" style="edgeStyle=orthogonalEdgeStyle;rounded=0;orthogonalLoop=1;jettySize=auto;html=1;" edge="1" parent="WIyWlLk6GJQsqaUBKTNV-1" source="Skrc7gYkLuCT7zbZgpwp-17" target="Skrc7gYkLuCT7zbZgpwp-65">
          <mxGeometry relative="1" as="geometry" />
        </mxCell>
        <mxCell id="Skrc7gYkLuCT7zbZgpwp-268" value="no" style="edgeLabel;html=1;align=center;verticalAlign=middle;resizable=0;points=[];" vertex="1" connectable="0" parent="Skrc7gYkLuCT7zbZgpwp-66">
          <mxGeometry x="-0.2" y="1" relative="1" as="geometry">
            <mxPoint as="offset" />
          </mxGeometry>
        </mxCell>
        <mxCell id="Skrc7gYkLuCT7zbZgpwp-17" value="menu = 2" style="rhombus;whiteSpace=wrap;html=1;strokeWidth=2;" vertex="1" parent="WIyWlLk6GJQsqaUBKTNV-1">
          <mxGeometry x="365" y="441" width="80" height="80" as="geometry" />
        </mxCell>
        <mxCell id="Skrc7gYkLuCT7zbZgpwp-22" value="" style="edgeStyle=orthogonalEdgeStyle;rounded=0;orthogonalLoop=1;jettySize=auto;html=1;" edge="1" parent="WIyWlLk6GJQsqaUBKTNV-1" source="Skrc7gYkLuCT7zbZgpwp-19" target="Skrc7gYkLuCT7zbZgpwp-21">
          <mxGeometry relative="1" as="geometry" />
        </mxCell>
        <mxCell id="Skrc7gYkLuCT7zbZgpwp-19" value="input username" style="shape=parallelogram;perimeter=parallelogramPerimeter;whiteSpace=wrap;html=1;fixedSize=1;strokeWidth=2;" vertex="1" parent="WIyWlLk6GJQsqaUBKTNV-1">
          <mxGeometry x="345" y="563" width="120" height="60" as="geometry" />
        </mxCell>
        <mxCell id="Skrc7gYkLuCT7zbZgpwp-56" value="" style="edgeStyle=orthogonalEdgeStyle;rounded=0;orthogonalLoop=1;jettySize=auto;html=1;" edge="1" parent="WIyWlLk6GJQsqaUBKTNV-1" source="Skrc7gYkLuCT7zbZgpwp-21" target="Skrc7gYkLuCT7zbZgpwp-55">
          <mxGeometry relative="1" as="geometry" />
        </mxCell>
        <mxCell id="Skrc7gYkLuCT7zbZgpwp-21" value="INPUT&amp;nbsp;&lt;div&gt;password&lt;/div&gt;" style="shape=parallelogram;perimeter=parallelogramPerimeter;whiteSpace=wrap;html=1;fixedSize=1;strokeWidth=2;" vertex="1" parent="WIyWlLk6GJQsqaUBKTNV-1">
          <mxGeometry x="345" y="664" width="120" height="60" as="geometry" />
        </mxCell>
        <mxCell id="Skrc7gYkLuCT7zbZgpwp-32" value="" style="edgeStyle=orthogonalEdgeStyle;rounded=0;orthogonalLoop=1;jettySize=auto;html=1;" edge="1" parent="WIyWlLk6GJQsqaUBKTNV-1" source="Skrc7gYkLuCT7zbZgpwp-29" target="Skrc7gYkLuCT7zbZgpwp-31">
          <mxGeometry relative="1" as="geometry">
            <Array as="points">
              <mxPoint y="800" />
            </Array>
          </mxGeometry>
        </mxCell>
        <mxCell id="Skrc7gYkLuCT7zbZgpwp-273" value="no" style="edgeLabel;html=1;align=center;verticalAlign=middle;resizable=0;points=[];" vertex="1" connectable="0" parent="Skrc7gYkLuCT7zbZgpwp-32">
          <mxGeometry x="-0.3178" y="-1" relative="1" as="geometry">
            <mxPoint x="23" y="1" as="offset" />
          </mxGeometry>
        </mxCell>
        <mxCell id="Skrc7gYkLuCT7zbZgpwp-34" value="" style="edgeStyle=orthogonalEdgeStyle;rounded=0;orthogonalLoop=1;jettySize=auto;html=1;" edge="1" parent="WIyWlLk6GJQsqaUBKTNV-1" source="Skrc7gYkLuCT7zbZgpwp-29" target="Skrc7gYkLuCT7zbZgpwp-33">
          <mxGeometry relative="1" as="geometry" />
        </mxCell>
        <mxCell id="Skrc7gYkLuCT7zbZgpwp-272" value="yes" style="edgeLabel;html=1;align=center;verticalAlign=middle;resizable=0;points=[];" vertex="1" connectable="0" parent="Skrc7gYkLuCT7zbZgpwp-34">
          <mxGeometry x="-0.3562" y="1" relative="1" as="geometry">
            <mxPoint x="-12" y="1" as="offset" />
          </mxGeometry>
        </mxCell>
        <mxCell id="Skrc7gYkLuCT7zbZgpwp-29" value="username for user in users" style="rhombus;whiteSpace=wrap;html=1;strokeWidth=2;" vertex="1" parent="WIyWlLk6GJQsqaUBKTNV-1">
          <mxGeometry x="80" y="750" width="100" height="100" as="geometry" />
        </mxCell>
        <mxCell id="Skrc7gYkLuCT7zbZgpwp-71" style="edgeStyle=orthogonalEdgeStyle;rounded=0;orthogonalLoop=1;jettySize=auto;html=1;exitX=0.5;exitY=1;exitDx=0;exitDy=0;" edge="1" parent="WIyWlLk6GJQsqaUBKTNV-1" source="Skrc7gYkLuCT7zbZgpwp-31" target="Skrc7gYkLuCT7zbZgpwp-68">
          <mxGeometry relative="1" as="geometry">
            <Array as="points">
              <mxPoint x="3" y="888" />
              <mxPoint y="888" />
              <mxPoint y="950" />
              <mxPoint x="-110" y="950" />
              <mxPoint x="-110" y="271" />
            </Array>
          </mxGeometry>
        </mxCell>
        <mxCell id="Skrc7gYkLuCT7zbZgpwp-31" value="registrasi berhasil, silahlan login" style="shape=parallelogram;perimeter=parallelogramPerimeter;whiteSpace=wrap;html=1;fixedSize=1;strokeWidth=2;" vertex="1" parent="WIyWlLk6GJQsqaUBKTNV-1">
          <mxGeometry x="-60" y="870" width="120" height="60" as="geometry" />
        </mxCell>
        <mxCell id="Skrc7gYkLuCT7zbZgpwp-70" style="edgeStyle=orthogonalEdgeStyle;rounded=0;orthogonalLoop=1;jettySize=auto;html=1;exitX=0.5;exitY=1;exitDx=0;exitDy=0;" edge="1" parent="WIyWlLk6GJQsqaUBKTNV-1" source="Skrc7gYkLuCT7zbZgpwp-33" target="Skrc7gYkLuCT7zbZgpwp-68">
          <mxGeometry relative="1" as="geometry">
            <Array as="points">
              <mxPoint x="241" y="950" />
              <mxPoint x="-110" y="950" />
              <mxPoint x="-110" y="271" />
            </Array>
          </mxGeometry>
        </mxCell>
        <mxCell id="Skrc7gYkLuCT7zbZgpwp-33" value="username sudah terdaftar" style="shape=parallelogram;perimeter=parallelogramPerimeter;whiteSpace=wrap;html=1;fixedSize=1;strokeWidth=2;" vertex="1" parent="WIyWlLk6GJQsqaUBKTNV-1">
          <mxGeometry x="181" y="870" width="120" height="60" as="geometry" />
        </mxCell>
        <mxCell id="Skrc7gYkLuCT7zbZgpwp-58" value="" style="edgeStyle=orthogonalEdgeStyle;rounded=0;orthogonalLoop=1;jettySize=auto;html=1;" edge="1" parent="WIyWlLk6GJQsqaUBKTNV-1" source="Skrc7gYkLuCT7zbZgpwp-55" target="Skrc7gYkLuCT7zbZgpwp-57">
          <mxGeometry relative="1" as="geometry" />
        </mxCell>
        <mxCell id="Skrc7gYkLuCT7zbZgpwp-275" value="no" style="edgeLabel;html=1;align=center;verticalAlign=middle;resizable=0;points=[];" vertex="1" connectable="0" parent="Skrc7gYkLuCT7zbZgpwp-58">
          <mxGeometry x="-0.1818" y="1" relative="1" as="geometry">
            <mxPoint as="offset" />
          </mxGeometry>
        </mxCell>
        <mxCell id="Skrc7gYkLuCT7zbZgpwp-60" value="" style="edgeStyle=orthogonalEdgeStyle;rounded=0;orthogonalLoop=1;jettySize=auto;html=1;" edge="1" parent="WIyWlLk6GJQsqaUBKTNV-1" source="Skrc7gYkLuCT7zbZgpwp-55" target="Skrc7gYkLuCT7zbZgpwp-59">
          <mxGeometry relative="1" as="geometry" />
        </mxCell>
        <mxCell id="Skrc7gYkLuCT7zbZgpwp-274" value="yes" style="edgeLabel;html=1;align=center;verticalAlign=middle;resizable=0;points=[];" vertex="1" connectable="0" parent="Skrc7gYkLuCT7zbZgpwp-60">
          <mxGeometry x="-0.1903" y="2" relative="1" as="geometry">
            <mxPoint as="offset" />
          </mxGeometry>
        </mxCell>
        <mxCell id="Skrc7gYkLuCT7zbZgpwp-55" value="username =&lt;div&gt;&amp;nbsp;penjual&lt;div&gt;and&lt;div&gt;password = penjual123&lt;/div&gt;&lt;/div&gt;&lt;/div&gt;" style="rhombus;whiteSpace=wrap;html=1;strokeWidth=2;" vertex="1" parent="WIyWlLk6GJQsqaUBKTNV-1">
          <mxGeometry x="345" y="790" width="120" height="106" as="geometry" />
        </mxCell>
        <mxCell id="Skrc7gYkLuCT7zbZgpwp-62" value="" style="edgeStyle=orthogonalEdgeStyle;rounded=0;orthogonalLoop=1;jettySize=auto;html=1;" edge="1" parent="WIyWlLk6GJQsqaUBKTNV-1" source="Skrc7gYkLuCT7zbZgpwp-57" target="Skrc7gYkLuCT7zbZgpwp-61">
          <mxGeometry relative="1" as="geometry" />
        </mxCell>
        <mxCell id="Skrc7gYkLuCT7zbZgpwp-277" value="no" style="edgeLabel;html=1;align=center;verticalAlign=middle;resizable=0;points=[];" vertex="1" connectable="0" parent="Skrc7gYkLuCT7zbZgpwp-62">
          <mxGeometry x="-0.1688" y="-1" relative="1" as="geometry">
            <mxPoint as="offset" />
          </mxGeometry>
        </mxCell>
        <mxCell id="Skrc7gYkLuCT7zbZgpwp-64" value="" style="edgeStyle=orthogonalEdgeStyle;rounded=0;orthogonalLoop=1;jettySize=auto;html=1;" edge="1" parent="WIyWlLk6GJQsqaUBKTNV-1" source="Skrc7gYkLuCT7zbZgpwp-57" target="Skrc7gYkLuCT7zbZgpwp-63">
          <mxGeometry relative="1" as="geometry" />
        </mxCell>
        <mxCell id="Skrc7gYkLuCT7zbZgpwp-276" value="yes" style="edgeLabel;html=1;align=center;verticalAlign=middle;resizable=0;points=[];" vertex="1" connectable="0" parent="Skrc7gYkLuCT7zbZgpwp-64">
          <mxGeometry x="-0.1329" y="1" relative="1" as="geometry">
            <mxPoint as="offset" />
          </mxGeometry>
        </mxCell>
        <mxCell id="Skrc7gYkLuCT7zbZgpwp-57" value="user" style="rhombus;whiteSpace=wrap;html=1;strokeWidth=2;" vertex="1" parent="WIyWlLk6GJQsqaUBKTNV-1">
          <mxGeometry x="565" y="803" width="80" height="80" as="geometry" />
        </mxCell>
        <mxCell id="Skrc7gYkLuCT7zbZgpwp-84" value="" style="edgeStyle=orthogonalEdgeStyle;rounded=0;orthogonalLoop=1;jettySize=auto;html=1;" edge="1" parent="WIyWlLk6GJQsqaUBKTNV-1" source="Skrc7gYkLuCT7zbZgpwp-59" target="Skrc7gYkLuCT7zbZgpwp-75">
          <mxGeometry relative="1" as="geometry" />
        </mxCell>
        <mxCell id="Skrc7gYkLuCT7zbZgpwp-59" value="user = penjual" style="whiteSpace=wrap;html=1;strokeWidth=2;" vertex="1" parent="WIyWlLk6GJQsqaUBKTNV-1">
          <mxGeometry x="345" y="960" width="120" height="60" as="geometry" />
        </mxCell>
        <mxCell id="Skrc7gYkLuCT7zbZgpwp-61" value="&lt;div&gt;OUTPUT&lt;/div&gt;usrname atau password salah" style="shape=parallelogram;perimeter=parallelogramPerimeter;whiteSpace=wrap;html=1;fixedSize=1;strokeWidth=2;" vertex="1" parent="WIyWlLk6GJQsqaUBKTNV-1">
          <mxGeometry x="705" y="813" width="120" height="60" as="geometry" />
        </mxCell>
        <mxCell id="Skrc7gYkLuCT7zbZgpwp-83" style="edgeStyle=orthogonalEdgeStyle;rounded=0;orthogonalLoop=1;jettySize=auto;html=1;exitX=0.5;exitY=1;exitDx=0;exitDy=0;" edge="1" parent="WIyWlLk6GJQsqaUBKTNV-1" source="Skrc7gYkLuCT7zbZgpwp-63" target="Skrc7gYkLuCT7zbZgpwp-75">
          <mxGeometry relative="1" as="geometry" />
        </mxCell>
        <mxCell id="Skrc7gYkLuCT7zbZgpwp-63" value="user = pembeli" style="whiteSpace=wrap;html=1;strokeWidth=2;" vertex="1" parent="WIyWlLk6GJQsqaUBKTNV-1">
          <mxGeometry x="545" y="961" width="120" height="60" as="geometry" />
        </mxCell>
        <mxCell id="Skrc7gYkLuCT7zbZgpwp-69" style="edgeStyle=orthogonalEdgeStyle;rounded=0;orthogonalLoop=1;jettySize=auto;html=1;exitX=1;exitY=0.5;exitDx=0;exitDy=0;entryX=1;entryY=0.5;entryDx=0;entryDy=0;" edge="1" parent="WIyWlLk6GJQsqaUBKTNV-1" source="Skrc7gYkLuCT7zbZgpwp-65" target="Skrc7gYkLuCT7zbZgpwp-68">
          <mxGeometry relative="1" as="geometry">
            <Array as="points">
              <mxPoint x="680" y="481" />
              <mxPoint x="680" y="271" />
            </Array>
          </mxGeometry>
        </mxCell>
        <mxCell id="Skrc7gYkLuCT7zbZgpwp-65" value="OUTPUT&lt;div&gt;pilihan tidak valid&lt;/div&gt;" style="shape=parallelogram;perimeter=parallelogramPerimeter;whiteSpace=wrap;html=1;fixedSize=1;strokeWidth=2;" vertex="1" parent="WIyWlLk6GJQsqaUBKTNV-1">
          <mxGeometry x="505" y="451" width="120" height="60" as="geometry" />
        </mxCell>
        <mxCell id="Skrc7gYkLuCT7zbZgpwp-77" style="edgeStyle=orthogonalEdgeStyle;rounded=0;orthogonalLoop=1;jettySize=auto;html=1;exitX=0.5;exitY=1;exitDx=0;exitDy=0;entryX=0.5;entryY=0;entryDx=0;entryDy=0;" edge="1" parent="WIyWlLk6GJQsqaUBKTNV-1" source="Skrc7gYkLuCT7zbZgpwp-68" target="Skrc7gYkLuCT7zbZgpwp-7">
          <mxGeometry relative="1" as="geometry" />
        </mxCell>
        <mxCell id="Skrc7gYkLuCT7zbZgpwp-68" value="LOOP" style="ellipse;whiteSpace=wrap;html=1;strokeWidth=2;" vertex="1" parent="WIyWlLk6GJQsqaUBKTNV-1">
          <mxGeometry x="90" y="242" width="80" height="58" as="geometry" />
        </mxCell>
        <mxCell id="Skrc7gYkLuCT7zbZgpwp-80" value="" style="edgeStyle=orthogonalEdgeStyle;rounded=0;orthogonalLoop=1;jettySize=auto;html=1;" edge="1" parent="WIyWlLk6GJQsqaUBKTNV-1" source="Skrc7gYkLuCT7zbZgpwp-75" target="Skrc7gYkLuCT7zbZgpwp-79">
          <mxGeometry relative="1" as="geometry" />
        </mxCell>
        <mxCell id="Skrc7gYkLuCT7zbZgpwp-75" value="&lt;b&gt;LOOP&lt;/b&gt;" style="ellipse;whiteSpace=wrap;html=1;" vertex="1" parent="WIyWlLk6GJQsqaUBKTNV-1">
          <mxGeometry x="417" y="1080" width="80" height="60" as="geometry" />
        </mxCell>
        <mxCell id="Skrc7gYkLuCT7zbZgpwp-82" value="" style="edgeStyle=orthogonalEdgeStyle;rounded=0;orthogonalLoop=1;jettySize=auto;html=1;" edge="1" parent="WIyWlLk6GJQsqaUBKTNV-1" source="Skrc7gYkLuCT7zbZgpwp-79" target="Skrc7gYkLuCT7zbZgpwp-88">
          <mxGeometry relative="1" as="geometry">
            <mxPoint x="577" y="1250" as="targetPoint" />
          </mxGeometry>
        </mxCell>
        <mxCell id="Skrc7gYkLuCT7zbZgpwp-279" value="no" style="edgeLabel;html=1;align=center;verticalAlign=middle;resizable=0;points=[];" vertex="1" connectable="0" parent="Skrc7gYkLuCT7zbZgpwp-82">
          <mxGeometry x="-0.6535" y="2" relative="1" as="geometry">
            <mxPoint as="offset" />
          </mxGeometry>
        </mxCell>
        <mxCell id="Skrc7gYkLuCT7zbZgpwp-114" style="edgeStyle=orthogonalEdgeStyle;rounded=0;orthogonalLoop=1;jettySize=auto;html=1;exitX=0;exitY=0.5;exitDx=0;exitDy=0;" edge="1" parent="WIyWlLk6GJQsqaUBKTNV-1" source="Skrc7gYkLuCT7zbZgpwp-79" target="Skrc7gYkLuCT7zbZgpwp-85">
          <mxGeometry relative="1" as="geometry" />
        </mxCell>
        <mxCell id="Skrc7gYkLuCT7zbZgpwp-278" value="yes" style="edgeLabel;html=1;align=center;verticalAlign=middle;resizable=0;points=[];" vertex="1" connectable="0" parent="Skrc7gYkLuCT7zbZgpwp-114">
          <mxGeometry x="-0.5876" y="2" relative="1" as="geometry">
            <mxPoint as="offset" />
          </mxGeometry>
        </mxCell>
        <mxCell id="Skrc7gYkLuCT7zbZgpwp-79" value="user = penjual" style="rhombus;whiteSpace=wrap;html=1;" vertex="1" parent="WIyWlLk6GJQsqaUBKTNV-1">
          <mxGeometry x="417" y="1210" width="80" height="80" as="geometry" />
        </mxCell>
        <mxCell id="Skrc7gYkLuCT7zbZgpwp-90" value="" style="edgeStyle=orthogonalEdgeStyle;rounded=0;orthogonalLoop=1;jettySize=auto;html=1;" edge="1" parent="WIyWlLk6GJQsqaUBKTNV-1" source="Skrc7gYkLuCT7zbZgpwp-85" target="Skrc7gYkLuCT7zbZgpwp-89">
          <mxGeometry relative="1" as="geometry" />
        </mxCell>
        <mxCell id="Skrc7gYkLuCT7zbZgpwp-85" value="OUTPUT&lt;div&gt;1.Tambahkan barang sembako&lt;/div&gt;&lt;div&gt;2. Tampilkan barang sembako&lt;/div&gt;&lt;div&gt;3. Ubah barang sembako&lt;/div&gt;&lt;div&gt;4. Hapus barang sembako&lt;/div&gt;&lt;div&gt;5. Keluar&amp;nbsp;&lt;/div&gt;" style="shape=parallelogram;perimeter=parallelogramPerimeter;whiteSpace=wrap;html=1;fixedSize=1;" vertex="1" parent="WIyWlLk6GJQsqaUBKTNV-1">
          <mxGeometry x="190" y="1300" width="200" height="100" as="geometry" />
        </mxCell>
        <mxCell id="Skrc7gYkLuCT7zbZgpwp-94" value="" style="edgeStyle=orthogonalEdgeStyle;rounded=0;orthogonalLoop=1;jettySize=auto;html=1;" edge="1" parent="WIyWlLk6GJQsqaUBKTNV-1" source="Skrc7gYkLuCT7zbZgpwp-88" target="Skrc7gYkLuCT7zbZgpwp-91">
          <mxGeometry relative="1" as="geometry" />
        </mxCell>
        <mxCell id="Skrc7gYkLuCT7zbZgpwp-88" value="OUTPUT&lt;div&gt;1. Tampilkan barang sembako&lt;/div&gt;&lt;div&gt;2. Pembelian&lt;/div&gt;&lt;div&gt;3. keluar&lt;/div&gt;" style="shape=parallelogram;perimeter=parallelogramPerimeter;whiteSpace=wrap;html=1;fixedSize=1;" vertex="1" parent="WIyWlLk6GJQsqaUBKTNV-1">
          <mxGeometry x="574" y="1300" width="200" height="100" as="geometry" />
        </mxCell>
        <mxCell id="Skrc7gYkLuCT7zbZgpwp-96" value="" style="edgeStyle=orthogonalEdgeStyle;rounded=0;orthogonalLoop=1;jettySize=auto;html=1;" edge="1" parent="WIyWlLk6GJQsqaUBKTNV-1" source="Skrc7gYkLuCT7zbZgpwp-89" target="Skrc7gYkLuCT7zbZgpwp-95">
          <mxGeometry relative="1" as="geometry" />
        </mxCell>
        <mxCell id="Skrc7gYkLuCT7zbZgpwp-89" value="IN{UT&lt;div&gt;Pilih opsi :&lt;/div&gt;" style="shape=parallelogram;perimeter=parallelogramPerimeter;whiteSpace=wrap;html=1;fixedSize=1;" vertex="1" parent="WIyWlLk6GJQsqaUBKTNV-1">
          <mxGeometry x="230" y="1480" width="120" height="60" as="geometry" />
        </mxCell>
        <mxCell id="Skrc7gYkLuCT7zbZgpwp-204" value="" style="edgeStyle=orthogonalEdgeStyle;rounded=0;orthogonalLoop=1;jettySize=auto;html=1;" edge="1" parent="WIyWlLk6GJQsqaUBKTNV-1" source="Skrc7gYkLuCT7zbZgpwp-91" target="Skrc7gYkLuCT7zbZgpwp-203">
          <mxGeometry relative="1" as="geometry" />
        </mxCell>
        <mxCell id="Skrc7gYkLuCT7zbZgpwp-91" value="IN{UT&lt;div&gt;Pilih opsi :&lt;/div&gt;" style="shape=parallelogram;perimeter=parallelogramPerimeter;whiteSpace=wrap;html=1;fixedSize=1;" vertex="1" parent="WIyWlLk6GJQsqaUBKTNV-1">
          <mxGeometry x="614" y="1430" width="120" height="60" as="geometry" />
        </mxCell>
        <mxCell id="Skrc7gYkLuCT7zbZgpwp-98" value="" style="edgeStyle=orthogonalEdgeStyle;rounded=0;orthogonalLoop=1;jettySize=auto;html=1;" edge="1" parent="WIyWlLk6GJQsqaUBKTNV-1" source="Skrc7gYkLuCT7zbZgpwp-95" target="Skrc7gYkLuCT7zbZgpwp-97">
          <mxGeometry relative="1" as="geometry" />
        </mxCell>
        <mxCell id="Skrc7gYkLuCT7zbZgpwp-281" value="no" style="edgeLabel;html=1;align=center;verticalAlign=middle;resizable=0;points=[];" vertex="1" connectable="0" parent="Skrc7gYkLuCT7zbZgpwp-98">
          <mxGeometry x="-0.7599" y="2" relative="1" as="geometry">
            <mxPoint as="offset" />
          </mxGeometry>
        </mxCell>
        <mxCell id="Skrc7gYkLuCT7zbZgpwp-117" value="" style="edgeStyle=orthogonalEdgeStyle;rounded=0;orthogonalLoop=1;jettySize=auto;html=1;" edge="1" parent="WIyWlLk6GJQsqaUBKTNV-1" source="Skrc7gYkLuCT7zbZgpwp-95" target="Skrc7gYkLuCT7zbZgpwp-107">
          <mxGeometry relative="1" as="geometry" />
        </mxCell>
        <mxCell id="Skrc7gYkLuCT7zbZgpwp-280" value="yes" style="edgeLabel;html=1;align=center;verticalAlign=middle;resizable=0;points=[];" vertex="1" connectable="0" parent="Skrc7gYkLuCT7zbZgpwp-117">
          <mxGeometry x="-0.7296" relative="1" as="geometry">
            <mxPoint as="offset" />
          </mxGeometry>
        </mxCell>
        <mxCell id="Skrc7gYkLuCT7zbZgpwp-95" value="menu = 1" style="rhombus;whiteSpace=wrap;html=1;" vertex="1" parent="WIyWlLk6GJQsqaUBKTNV-1">
          <mxGeometry x="115" y="1471" width="80" height="80" as="geometry" />
        </mxCell>
        <mxCell id="Skrc7gYkLuCT7zbZgpwp-100" value="" style="edgeStyle=orthogonalEdgeStyle;rounded=0;orthogonalLoop=1;jettySize=auto;html=1;" edge="1" parent="WIyWlLk6GJQsqaUBKTNV-1" source="Skrc7gYkLuCT7zbZgpwp-97" target="Skrc7gYkLuCT7zbZgpwp-99">
          <mxGeometry relative="1" as="geometry" />
        </mxCell>
        <mxCell id="Skrc7gYkLuCT7zbZgpwp-283" value="no" style="edgeLabel;html=1;align=center;verticalAlign=middle;resizable=0;points=[];" vertex="1" connectable="0" parent="Skrc7gYkLuCT7zbZgpwp-100">
          <mxGeometry x="-0.3466" relative="1" as="geometry">
            <mxPoint as="offset" />
          </mxGeometry>
        </mxCell>
        <mxCell id="Skrc7gYkLuCT7zbZgpwp-120" value="" style="edgeStyle=orthogonalEdgeStyle;rounded=0;orthogonalLoop=1;jettySize=auto;html=1;" edge="1" parent="WIyWlLk6GJQsqaUBKTNV-1" source="Skrc7gYkLuCT7zbZgpwp-97" target="Skrc7gYkLuCT7zbZgpwp-119">
          <mxGeometry relative="1" as="geometry" />
        </mxCell>
        <mxCell id="Skrc7gYkLuCT7zbZgpwp-282" value="yes" style="edgeLabel;html=1;align=center;verticalAlign=middle;resizable=0;points=[];" vertex="1" connectable="0" parent="Skrc7gYkLuCT7zbZgpwp-120">
          <mxGeometry x="-0.0864" y="-2" relative="1" as="geometry">
            <mxPoint as="offset" />
          </mxGeometry>
        </mxCell>
        <mxCell id="Skrc7gYkLuCT7zbZgpwp-97" value="menu = 2" style="rhombus;whiteSpace=wrap;html=1;" vertex="1" parent="WIyWlLk6GJQsqaUBKTNV-1">
          <mxGeometry x="115" y="1767" width="80" height="80" as="geometry" />
        </mxCell>
        <mxCell id="Skrc7gYkLuCT7zbZgpwp-102" value="" style="edgeStyle=orthogonalEdgeStyle;rounded=0;orthogonalLoop=1;jettySize=auto;html=1;" edge="1" parent="WIyWlLk6GJQsqaUBKTNV-1" target="Skrc7gYkLuCT7zbZgpwp-101">
          <mxGeometry relative="1" as="geometry">
            <mxPoint x="155" y="2144" as="sourcePoint" />
          </mxGeometry>
        </mxCell>
        <mxCell id="Skrc7gYkLuCT7zbZgpwp-136" value="" style="edgeStyle=orthogonalEdgeStyle;rounded=0;orthogonalLoop=1;jettySize=auto;html=1;" edge="1" parent="WIyWlLk6GJQsqaUBKTNV-1" source="Skrc7gYkLuCT7zbZgpwp-99" target="Skrc7gYkLuCT7zbZgpwp-131">
          <mxGeometry relative="1" as="geometry" />
        </mxCell>
        <mxCell id="Skrc7gYkLuCT7zbZgpwp-284" value="yes" style="edgeLabel;html=1;align=center;verticalAlign=middle;resizable=0;points=[];" vertex="1" connectable="0" parent="Skrc7gYkLuCT7zbZgpwp-136">
          <mxGeometry x="-0.1596" relative="1" as="geometry">
            <mxPoint as="offset" />
          </mxGeometry>
        </mxCell>
        <mxCell id="Skrc7gYkLuCT7zbZgpwp-137" style="edgeStyle=orthogonalEdgeStyle;rounded=0;orthogonalLoop=1;jettySize=auto;html=1;exitX=0.5;exitY=1;exitDx=0;exitDy=0;entryX=0.5;entryY=0;entryDx=0;entryDy=0;" edge="1" parent="WIyWlLk6GJQsqaUBKTNV-1" source="Skrc7gYkLuCT7zbZgpwp-99" target="Skrc7gYkLuCT7zbZgpwp-101">
          <mxGeometry relative="1" as="geometry" />
        </mxCell>
        <mxCell id="Skrc7gYkLuCT7zbZgpwp-285" value="no" style="edgeLabel;html=1;align=center;verticalAlign=middle;resizable=0;points=[];" vertex="1" connectable="0" parent="Skrc7gYkLuCT7zbZgpwp-137">
          <mxGeometry x="-0.801" y="2" relative="1" as="geometry">
            <mxPoint as="offset" />
          </mxGeometry>
        </mxCell>
        <mxCell id="Skrc7gYkLuCT7zbZgpwp-99" value="menu = 3" style="rhombus;whiteSpace=wrap;html=1;" vertex="1" parent="WIyWlLk6GJQsqaUBKTNV-1">
          <mxGeometry x="115" y="1964" width="80" height="80" as="geometry" />
        </mxCell>
        <mxCell id="Skrc7gYkLuCT7zbZgpwp-104" value="" style="edgeStyle=orthogonalEdgeStyle;rounded=0;orthogonalLoop=1;jettySize=auto;html=1;" edge="1" parent="WIyWlLk6GJQsqaUBKTNV-1" source="Skrc7gYkLuCT7zbZgpwp-101" target="Skrc7gYkLuCT7zbZgpwp-103">
          <mxGeometry relative="1" as="geometry" />
        </mxCell>
        <mxCell id="Skrc7gYkLuCT7zbZgpwp-287" value="no" style="edgeLabel;html=1;align=center;verticalAlign=middle;resizable=0;points=[];" vertex="1" connectable="0" parent="Skrc7gYkLuCT7zbZgpwp-104">
          <mxGeometry x="-0.72" y="2" relative="1" as="geometry">
            <mxPoint as="offset" />
          </mxGeometry>
        </mxCell>
        <mxCell id="Skrc7gYkLuCT7zbZgpwp-101" value="menu = 4" style="rhombus;whiteSpace=wrap;html=1;" vertex="1" parent="WIyWlLk6GJQsqaUBKTNV-1">
          <mxGeometry x="115" y="2436" width="80" height="80" as="geometry" />
        </mxCell>
        <mxCell id="Skrc7gYkLuCT7zbZgpwp-198" value="" style="edgeStyle=orthogonalEdgeStyle;rounded=0;orthogonalLoop=1;jettySize=auto;html=1;" edge="1" parent="WIyWlLk6GJQsqaUBKTNV-1" source="Skrc7gYkLuCT7zbZgpwp-103" target="Skrc7gYkLuCT7zbZgpwp-197">
          <mxGeometry relative="1" as="geometry" />
        </mxCell>
        <mxCell id="Skrc7gYkLuCT7zbZgpwp-300" value="yes" style="edgeLabel;html=1;align=center;verticalAlign=middle;resizable=0;points=[];" vertex="1" connectable="0" parent="Skrc7gYkLuCT7zbZgpwp-198">
          <mxGeometry x="-0.0406" y="-2" relative="1" as="geometry">
            <mxPoint as="offset" />
          </mxGeometry>
        </mxCell>
        <mxCell id="Skrc7gYkLuCT7zbZgpwp-200" value="" style="edgeStyle=orthogonalEdgeStyle;rounded=0;orthogonalLoop=1;jettySize=auto;html=1;" edge="1" parent="WIyWlLk6GJQsqaUBKTNV-1" source="Skrc7gYkLuCT7zbZgpwp-103" target="Skrc7gYkLuCT7zbZgpwp-199">
          <mxGeometry relative="1" as="geometry" />
        </mxCell>
        <mxCell id="Skrc7gYkLuCT7zbZgpwp-301" value="no" style="edgeLabel;html=1;align=center;verticalAlign=middle;resizable=0;points=[];" vertex="1" connectable="0" parent="Skrc7gYkLuCT7zbZgpwp-200">
          <mxGeometry x="0.3894" y="1" relative="1" as="geometry">
            <mxPoint as="offset" />
          </mxGeometry>
        </mxCell>
        <mxCell id="Skrc7gYkLuCT7zbZgpwp-103" value="menu = 5" style="rhombus;whiteSpace=wrap;html=1;" vertex="1" parent="WIyWlLk6GJQsqaUBKTNV-1">
          <mxGeometry x="115" y="2821" width="80" height="80" as="geometry" />
        </mxCell>
        <mxCell id="Skrc7gYkLuCT7zbZgpwp-105" value="INPUT&lt;div&gt;Sembako baru&lt;/div&gt;" style="shape=parallelogram;perimeter=parallelogramPerimeter;whiteSpace=wrap;html=1;fixedSize=1;" vertex="1" parent="WIyWlLk6GJQsqaUBKTNV-1">
          <mxGeometry x="-51" y="1481" width="120" height="60" as="geometry" />
        </mxCell>
        <mxCell id="Skrc7gYkLuCT7zbZgpwp-113" value="" style="edgeStyle=orthogonalEdgeStyle;rounded=0;orthogonalLoop=1;jettySize=auto;html=1;" edge="1" parent="WIyWlLk6GJQsqaUBKTNV-1" source="Skrc7gYkLuCT7zbZgpwp-107" target="Skrc7gYkLuCT7zbZgpwp-112">
          <mxGeometry relative="1" as="geometry" />
        </mxCell>
        <mxCell id="Skrc7gYkLuCT7zbZgpwp-107" value="INPUT&lt;div&gt;hargannya&lt;/div&gt;" style="shape=parallelogram;perimeter=parallelogramPerimeter;whiteSpace=wrap;html=1;fixedSize=1;" vertex="1" parent="WIyWlLk6GJQsqaUBKTNV-1">
          <mxGeometry x="-181" y="1481" width="120" height="60" as="geometry" />
        </mxCell>
        <mxCell id="Skrc7gYkLuCT7zbZgpwp-116" value="" style="edgeStyle=orthogonalEdgeStyle;rounded=0;orthogonalLoop=1;jettySize=auto;html=1;" edge="1" parent="WIyWlLk6GJQsqaUBKTNV-1" source="Skrc7gYkLuCT7zbZgpwp-112" target="Skrc7gYkLuCT7zbZgpwp-115">
          <mxGeometry relative="1" as="geometry" />
        </mxCell>
        <mxCell id="Skrc7gYkLuCT7zbZgpwp-112" value="Menambahkan sembako baru beserta hargannya ke dalam list sembako&amp;nbsp;" style="whiteSpace=wrap;html=1;" vertex="1" parent="WIyWlLk6GJQsqaUBKTNV-1">
          <mxGeometry x="-181" y="1571" width="120" height="60" as="geometry" />
        </mxCell>
        <mxCell id="Skrc7gYkLuCT7zbZgpwp-115" value="OUPUT&lt;div&gt;Sembako baru beserta hargannya berhasil ditambahkan&amp;nbsp;&lt;/div&gt;" style="shape=parallelogram;perimeter=parallelogramPerimeter;whiteSpace=wrap;html=1;fixedSize=1;" vertex="1" parent="WIyWlLk6GJQsqaUBKTNV-1">
          <mxGeometry x="-191" y="1661" width="140" height="70" as="geometry" />
        </mxCell>
        <mxCell id="Skrc7gYkLuCT7zbZgpwp-122" value="" style="edgeStyle=orthogonalEdgeStyle;rounded=0;orthogonalLoop=1;jettySize=auto;html=1;" edge="1" parent="WIyWlLk6GJQsqaUBKTNV-1" source="Skrc7gYkLuCT7zbZgpwp-119" target="Skrc7gYkLuCT7zbZgpwp-121">
          <mxGeometry relative="1" as="geometry" />
        </mxCell>
        <mxCell id="Skrc7gYkLuCT7zbZgpwp-288" value="yes" style="edgeLabel;html=1;align=center;verticalAlign=middle;resizable=0;points=[];" vertex="1" connectable="0" parent="Skrc7gYkLuCT7zbZgpwp-122">
          <mxGeometry x="-0.2538" y="-1" relative="1" as="geometry">
            <mxPoint as="offset" />
          </mxGeometry>
        </mxCell>
        <mxCell id="Skrc7gYkLuCT7zbZgpwp-128" value="" style="edgeStyle=orthogonalEdgeStyle;rounded=0;orthogonalLoop=1;jettySize=auto;html=1;" edge="1" parent="WIyWlLk6GJQsqaUBKTNV-1" source="Skrc7gYkLuCT7zbZgpwp-119" target="Skrc7gYkLuCT7zbZgpwp-127">
          <mxGeometry relative="1" as="geometry" />
        </mxCell>
        <mxCell id="Skrc7gYkLuCT7zbZgpwp-289" value="no" style="edgeLabel;html=1;align=center;verticalAlign=middle;resizable=0;points=[];" vertex="1" connectable="0" parent="Skrc7gYkLuCT7zbZgpwp-128">
          <mxGeometry x="-0.6468" y="-1" relative="1" as="geometry">
            <mxPoint as="offset" />
          </mxGeometry>
        </mxCell>
        <mxCell id="Skrc7gYkLuCT7zbZgpwp-119" value="Sembako list kosong" style="rhombus;whiteSpace=wrap;html=1;" vertex="1" parent="WIyWlLk6GJQsqaUBKTNV-1">
          <mxGeometry x="-51" y="1765" width="85" height="84" as="geometry" />
        </mxCell>
        <mxCell id="Skrc7gYkLuCT7zbZgpwp-121" value="OUTPUT&lt;div&gt;Tidak ada barang sebako yang tersedia&lt;/div&gt;" style="shape=parallelogram;perimeter=parallelogramPerimeter;whiteSpace=wrap;html=1;fixedSize=1;" vertex="1" parent="WIyWlLk6GJQsqaUBKTNV-1">
          <mxGeometry x="-233.5" y="1777" width="143.5" height="60" as="geometry" />
        </mxCell>
        <mxCell id="Skrc7gYkLuCT7zbZgpwp-127" value="OUTPUT&lt;div&gt;Menampilkan isi list sembako&lt;br&gt;&lt;/div&gt;" style="shape=parallelogram;perimeter=parallelogramPerimeter;whiteSpace=wrap;html=1;fixedSize=1;" vertex="1" parent="WIyWlLk6GJQsqaUBKTNV-1">
          <mxGeometry x="-68.5" y="1879" width="120" height="60" as="geometry" />
        </mxCell>
        <mxCell id="Skrc7gYkLuCT7zbZgpwp-129" value="" style="edgeStyle=orthogonalEdgeStyle;rounded=0;orthogonalLoop=1;jettySize=auto;html=1;" edge="1" parent="WIyWlLk6GJQsqaUBKTNV-1" source="Skrc7gYkLuCT7zbZgpwp-131" target="Skrc7gYkLuCT7zbZgpwp-132">
          <mxGeometry relative="1" as="geometry" />
        </mxCell>
        <mxCell id="Skrc7gYkLuCT7zbZgpwp-291" value="yes" style="edgeLabel;html=1;align=center;verticalAlign=middle;resizable=0;points=[];" vertex="1" connectable="0" parent="Skrc7gYkLuCT7zbZgpwp-129">
          <mxGeometry x="-0.0903" y="1" relative="1" as="geometry">
            <mxPoint as="offset" />
          </mxGeometry>
        </mxCell>
        <mxCell id="Skrc7gYkLuCT7zbZgpwp-130" value="" style="edgeStyle=orthogonalEdgeStyle;rounded=0;orthogonalLoop=1;jettySize=auto;html=1;" edge="1" parent="WIyWlLk6GJQsqaUBKTNV-1" source="Skrc7gYkLuCT7zbZgpwp-131" target="Skrc7gYkLuCT7zbZgpwp-133">
          <mxGeometry relative="1" as="geometry" />
        </mxCell>
        <mxCell id="Skrc7gYkLuCT7zbZgpwp-292" value="no" style="edgeLabel;html=1;align=center;verticalAlign=middle;resizable=0;points=[];" vertex="1" connectable="0" parent="Skrc7gYkLuCT7zbZgpwp-130">
          <mxGeometry x="-0.5014" y="1" relative="1" as="geometry">
            <mxPoint as="offset" />
          </mxGeometry>
        </mxCell>
        <mxCell id="Skrc7gYkLuCT7zbZgpwp-131" value="Sembako list kosong" style="rhombus;whiteSpace=wrap;html=1;" vertex="1" parent="WIyWlLk6GJQsqaUBKTNV-1">
          <mxGeometry x="-51" y="1962" width="85" height="84" as="geometry" />
        </mxCell>
        <mxCell id="Skrc7gYkLuCT7zbZgpwp-132" value="OUTPUT&lt;div&gt;Tidak ada barang sebako yang tersedia&lt;/div&gt;" style="shape=parallelogram;perimeter=parallelogramPerimeter;whiteSpace=wrap;html=1;fixedSize=1;" vertex="1" parent="WIyWlLk6GJQsqaUBKTNV-1">
          <mxGeometry x="-233.5" y="1974" width="143.5" height="60" as="geometry" />
        </mxCell>
        <mxCell id="Skrc7gYkLuCT7zbZgpwp-139" value="" style="edgeStyle=orthogonalEdgeStyle;rounded=0;orthogonalLoop=1;jettySize=auto;html=1;" edge="1" parent="WIyWlLk6GJQsqaUBKTNV-1" source="Skrc7gYkLuCT7zbZgpwp-133" target="Skrc7gYkLuCT7zbZgpwp-138">
          <mxGeometry relative="1" as="geometry" />
        </mxCell>
        <mxCell id="Skrc7gYkLuCT7zbZgpwp-133" value="OUTPUT&lt;div&gt;Menampilkan isi list sembako&lt;br&gt;&lt;/div&gt;" style="shape=parallelogram;perimeter=parallelogramPerimeter;whiteSpace=wrap;html=1;fixedSize=1;" vertex="1" parent="WIyWlLk6GJQsqaUBKTNV-1">
          <mxGeometry x="-68.5" y="2081" width="120" height="60" as="geometry" />
        </mxCell>
        <mxCell id="Skrc7gYkLuCT7zbZgpwp-147" value="" style="edgeStyle=orthogonalEdgeStyle;rounded=0;orthogonalLoop=1;jettySize=auto;html=1;" edge="1" parent="WIyWlLk6GJQsqaUBKTNV-1" source="Skrc7gYkLuCT7zbZgpwp-138" target="Skrc7gYkLuCT7zbZgpwp-146">
          <mxGeometry relative="1" as="geometry" />
        </mxCell>
        <mxCell id="Skrc7gYkLuCT7zbZgpwp-138" value="INPUT&lt;div&gt;&amp;nbsp;Pilih sembako&lt;/div&gt;&lt;div&gt;get item&lt;/div&gt;" style="shape=parallelogram;perimeter=parallelogramPerimeter;whiteSpace=wrap;html=1;fixedSize=1;" vertex="1" parent="WIyWlLk6GJQsqaUBKTNV-1">
          <mxGeometry x="-221.75" y="2081" width="120" height="60" as="geometry" />
        </mxCell>
        <mxCell id="Skrc7gYkLuCT7zbZgpwp-145" value="" style="edgeStyle=orthogonalEdgeStyle;rounded=0;orthogonalLoop=1;jettySize=auto;html=1;" edge="1" parent="WIyWlLk6GJQsqaUBKTNV-1" source="Skrc7gYkLuCT7zbZgpwp-142" target="Skrc7gYkLuCT7zbZgpwp-144">
          <mxGeometry relative="1" as="geometry" />
        </mxCell>
        <mxCell id="Skrc7gYkLuCT7zbZgpwp-142" value="INPUT&lt;div&gt;harga_baru&lt;/div&gt;" style="shape=parallelogram;perimeter=parallelogramPerimeter;whiteSpace=wrap;html=1;fixedSize=1;" vertex="1" parent="WIyWlLk6GJQsqaUBKTNV-1">
          <mxGeometry x="-40" y="2311" width="120" height="60" as="geometry" />
        </mxCell>
        <mxCell id="Skrc7gYkLuCT7zbZgpwp-155" style="edgeStyle=orthogonalEdgeStyle;rounded=0;orthogonalLoop=1;jettySize=auto;html=1;exitX=0;exitY=0.5;exitDx=0;exitDy=0;" edge="1" parent="WIyWlLk6GJQsqaUBKTNV-1" source="Skrc7gYkLuCT7zbZgpwp-144" target="Skrc7gYkLuCT7zbZgpwp-75">
          <mxGeometry relative="1" as="geometry">
            <Array as="points">
              <mxPoint x="-420" y="2341" />
              <mxPoint x="-420" y="1110" />
            </Array>
          </mxGeometry>
        </mxCell>
        <mxCell id="Skrc7gYkLuCT7zbZgpwp-144" value="barang nomer &quot;itrem&quot; berhasil diperbarui" style="shape=parallelogram;perimeter=parallelogramPerimeter;whiteSpace=wrap;html=1;fixedSize=1;" vertex="1" parent="WIyWlLk6GJQsqaUBKTNV-1">
          <mxGeometry x="-360" y="2311" width="120" height="60" as="geometry" />
        </mxCell>
        <mxCell id="Skrc7gYkLuCT7zbZgpwp-150" value="" style="edgeStyle=orthogonalEdgeStyle;rounded=0;orthogonalLoop=1;jettySize=auto;html=1;" edge="1" parent="WIyWlLk6GJQsqaUBKTNV-1" source="Skrc7gYkLuCT7zbZgpwp-146" target="Skrc7gYkLuCT7zbZgpwp-149">
          <mxGeometry relative="1" as="geometry" />
        </mxCell>
        <mxCell id="Skrc7gYkLuCT7zbZgpwp-293" value="yes" style="edgeLabel;html=1;align=center;verticalAlign=middle;resizable=0;points=[];" vertex="1" connectable="0" parent="Skrc7gYkLuCT7zbZgpwp-150">
          <mxGeometry x="-0.1141" relative="1" as="geometry">
            <mxPoint as="offset" />
          </mxGeometry>
        </mxCell>
        <mxCell id="Skrc7gYkLuCT7zbZgpwp-152" value="" style="edgeStyle=orthogonalEdgeStyle;rounded=0;orthogonalLoop=1;jettySize=auto;html=1;" edge="1" parent="WIyWlLk6GJQsqaUBKTNV-1" source="Skrc7gYkLuCT7zbZgpwp-146" target="Skrc7gYkLuCT7zbZgpwp-151">
          <mxGeometry relative="1" as="geometry" />
        </mxCell>
        <mxCell id="Skrc7gYkLuCT7zbZgpwp-294" value="" style="edgeStyle=orthogonalEdgeStyle;rounded=0;orthogonalLoop=1;jettySize=auto;html=1;" edge="1" parent="WIyWlLk6GJQsqaUBKTNV-1" source="Skrc7gYkLuCT7zbZgpwp-146" target="Skrc7gYkLuCT7zbZgpwp-151">
          <mxGeometry relative="1" as="geometry" />
        </mxCell>
        <mxCell id="Skrc7gYkLuCT7zbZgpwp-295" value="no" style="edgeLabel;html=1;align=center;verticalAlign=middle;resizable=0;points=[];" vertex="1" connectable="0" parent="Skrc7gYkLuCT7zbZgpwp-294">
          <mxGeometry x="-0.2335" relative="1" as="geometry">
            <mxPoint as="offset" />
          </mxGeometry>
        </mxCell>
        <mxCell id="Skrc7gYkLuCT7zbZgpwp-146" value="0&amp;lt;= item dan item &amp;lt; 5" style="rhombus;whiteSpace=wrap;html=1;" vertex="1" parent="WIyWlLk6GJQsqaUBKTNV-1">
          <mxGeometry x="-201.75" y="2161" width="80" height="80" as="geometry" />
        </mxCell>
        <mxCell id="Skrc7gYkLuCT7zbZgpwp-153" value="" style="edgeStyle=orthogonalEdgeStyle;rounded=0;orthogonalLoop=1;jettySize=auto;html=1;" edge="1" parent="WIyWlLk6GJQsqaUBKTNV-1" source="Skrc7gYkLuCT7zbZgpwp-149" target="Skrc7gYkLuCT7zbZgpwp-142">
          <mxGeometry relative="1" as="geometry" />
        </mxCell>
        <mxCell id="Skrc7gYkLuCT7zbZgpwp-149" value="INPUT&lt;div&gt;nama_baru&lt;/div&gt;" style="shape=parallelogram;perimeter=parallelogramPerimeter;whiteSpace=wrap;html=1;fixedSize=1;" vertex="1" parent="WIyWlLk6GJQsqaUBKTNV-1">
          <mxGeometry x="-40" y="2171" width="120" height="60" as="geometry" />
        </mxCell>
        <mxCell id="Skrc7gYkLuCT7zbZgpwp-158" style="edgeStyle=orthogonalEdgeStyle;rounded=0;orthogonalLoop=1;jettySize=auto;html=1;exitX=0;exitY=0.5;exitDx=0;exitDy=0;entryX=0;entryY=0.5;entryDx=0;entryDy=0;" edge="1" parent="WIyWlLk6GJQsqaUBKTNV-1" source="Skrc7gYkLuCT7zbZgpwp-151" target="Skrc7gYkLuCT7zbZgpwp-75">
          <mxGeometry relative="1" as="geometry">
            <mxPoint x="-520" y="2289.936170212766" as="targetPoint" />
            <Array as="points">
              <mxPoint x="-420" y="2201" />
              <mxPoint x="-420" y="1110" />
            </Array>
          </mxGeometry>
        </mxCell>
        <mxCell id="Skrc7gYkLuCT7zbZgpwp-151" value="OUTPUT&lt;div&gt;barang tidak ditemukan&lt;/div&gt;" style="shape=parallelogram;perimeter=parallelogramPerimeter;whiteSpace=wrap;html=1;fixedSize=1;" vertex="1" parent="WIyWlLk6GJQsqaUBKTNV-1">
          <mxGeometry x="-370" y="2171" width="120" height="60" as="geometry" />
        </mxCell>
        <mxCell id="Skrc7gYkLuCT7zbZgpwp-159" value="" style="edgeStyle=orthogonalEdgeStyle;rounded=0;orthogonalLoop=1;jettySize=auto;html=1;" edge="1" parent="WIyWlLk6GJQsqaUBKTNV-1" target="Skrc7gYkLuCT7zbZgpwp-161">
          <mxGeometry relative="1" as="geometry">
            <mxPoint x="115" y="2478" as="sourcePoint" />
          </mxGeometry>
        </mxCell>
        <mxCell id="Skrc7gYkLuCT7zbZgpwp-286" value="yes" style="edgeLabel;html=1;align=center;verticalAlign=middle;resizable=0;points=[];" vertex="1" connectable="0" parent="Skrc7gYkLuCT7zbZgpwp-159">
          <mxGeometry x="-0.1289" y="-3" relative="1" as="geometry">
            <mxPoint as="offset" />
          </mxGeometry>
        </mxCell>
        <mxCell id="Skrc7gYkLuCT7zbZgpwp-160" value="" style="edgeStyle=orthogonalEdgeStyle;rounded=0;orthogonalLoop=1;jettySize=auto;html=1;" edge="1" parent="WIyWlLk6GJQsqaUBKTNV-1" source="Skrc7gYkLuCT7zbZgpwp-161" target="Skrc7gYkLuCT7zbZgpwp-162">
          <mxGeometry relative="1" as="geometry" />
        </mxCell>
        <mxCell id="Skrc7gYkLuCT7zbZgpwp-296" value="yes" style="edgeLabel;html=1;align=center;verticalAlign=middle;resizable=0;points=[];" vertex="1" connectable="0" parent="Skrc7gYkLuCT7zbZgpwp-160">
          <mxGeometry x="-0.3647" y="1" relative="1" as="geometry">
            <mxPoint as="offset" />
          </mxGeometry>
        </mxCell>
        <mxCell id="Skrc7gYkLuCT7zbZgpwp-171" style="edgeStyle=orthogonalEdgeStyle;rounded=0;orthogonalLoop=1;jettySize=auto;html=1;exitX=0.5;exitY=1;exitDx=0;exitDy=0;" edge="1" parent="WIyWlLk6GJQsqaUBKTNV-1" source="Skrc7gYkLuCT7zbZgpwp-161" target="Skrc7gYkLuCT7zbZgpwp-170">
          <mxGeometry relative="1" as="geometry" />
        </mxCell>
        <mxCell id="Skrc7gYkLuCT7zbZgpwp-297" value="no" style="edgeLabel;html=1;align=center;verticalAlign=middle;resizable=0;points=[];" vertex="1" connectable="0" parent="Skrc7gYkLuCT7zbZgpwp-171">
          <mxGeometry x="-0.5592" y="3" relative="1" as="geometry">
            <mxPoint as="offset" />
          </mxGeometry>
        </mxCell>
        <mxCell id="Skrc7gYkLuCT7zbZgpwp-161" value="Sembako list kosong" style="rhombus;whiteSpace=wrap;html=1;" vertex="1" parent="WIyWlLk6GJQsqaUBKTNV-1">
          <mxGeometry x="-51" y="2436" width="85" height="84" as="geometry" />
        </mxCell>
        <mxCell id="Skrc7gYkLuCT7zbZgpwp-162" value="OUTPUT&lt;div&gt;Tidak ada barang sembako yang tersedia&lt;/div&gt;" style="shape=parallelogram;perimeter=parallelogramPerimeter;whiteSpace=wrap;html=1;fixedSize=1;" vertex="1" parent="WIyWlLk6GJQsqaUBKTNV-1">
          <mxGeometry x="-270" y="2448" width="180" height="60" as="geometry" />
        </mxCell>
        <mxCell id="Skrc7gYkLuCT7zbZgpwp-163" value="mengubah nama dan harga sembako yang dipilih" style="rounded=1;whiteSpace=wrap;html=1;" vertex="1" parent="WIyWlLk6GJQsqaUBKTNV-1">
          <mxGeometry x="-188.5" y="2311" width="120" height="60" as="geometry" />
        </mxCell>
        <mxCell id="Skrc7gYkLuCT7zbZgpwp-189" style="edgeStyle=orthogonalEdgeStyle;rounded=0;orthogonalLoop=1;jettySize=auto;html=1;exitX=0;exitY=0.5;exitDx=0;exitDy=0;entryX=1;entryY=0.5;entryDx=0;entryDy=0;" edge="1" parent="WIyWlLk6GJQsqaUBKTNV-1" source="Skrc7gYkLuCT7zbZgpwp-170" target="Skrc7gYkLuCT7zbZgpwp-183">
          <mxGeometry relative="1" as="geometry" />
        </mxCell>
        <mxCell id="Skrc7gYkLuCT7zbZgpwp-170" value="OUTPUT&lt;div&gt;Menampilkan isi list sembako&lt;br&gt;&lt;/div&gt;" style="shape=parallelogram;perimeter=parallelogramPerimeter;whiteSpace=wrap;html=1;fixedSize=1;" vertex="1" parent="WIyWlLk6GJQsqaUBKTNV-1">
          <mxGeometry x="-68.5" y="2551" width="120" height="60" as="geometry" />
        </mxCell>
        <mxCell id="Skrc7gYkLuCT7zbZgpwp-182" value="" style="edgeStyle=orthogonalEdgeStyle;rounded=0;orthogonalLoop=1;jettySize=auto;html=1;" edge="1" parent="WIyWlLk6GJQsqaUBKTNV-1" source="Skrc7gYkLuCT7zbZgpwp-183" target="Skrc7gYkLuCT7zbZgpwp-185">
          <mxGeometry relative="1" as="geometry" />
        </mxCell>
        <mxCell id="Skrc7gYkLuCT7zbZgpwp-183" value="INPUT&lt;div&gt;&amp;nbsp;Pilih sembako&lt;/div&gt;&lt;div&gt;get item&lt;/div&gt;" style="shape=parallelogram;perimeter=parallelogramPerimeter;whiteSpace=wrap;html=1;fixedSize=1;" vertex="1" parent="WIyWlLk6GJQsqaUBKTNV-1">
          <mxGeometry x="-221.75" y="2551" width="120" height="60" as="geometry" />
        </mxCell>
        <mxCell id="Skrc7gYkLuCT7zbZgpwp-184" value="" style="edgeStyle=orthogonalEdgeStyle;rounded=0;orthogonalLoop=1;jettySize=auto;html=1;" edge="1" parent="WIyWlLk6GJQsqaUBKTNV-1" source="Skrc7gYkLuCT7zbZgpwp-185" target="Skrc7gYkLuCT7zbZgpwp-186">
          <mxGeometry relative="1" as="geometry" />
        </mxCell>
        <mxCell id="Skrc7gYkLuCT7zbZgpwp-299" value="no" style="edgeLabel;html=1;align=center;verticalAlign=middle;resizable=0;points=[];" vertex="1" connectable="0" parent="Skrc7gYkLuCT7zbZgpwp-184">
          <mxGeometry x="-0.2162" y="-1" relative="1" as="geometry">
            <mxPoint as="offset" />
          </mxGeometry>
        </mxCell>
        <mxCell id="Skrc7gYkLuCT7zbZgpwp-192" value="" style="edgeStyle=orthogonalEdgeStyle;rounded=0;orthogonalLoop=1;jettySize=auto;html=1;" edge="1" parent="WIyWlLk6GJQsqaUBKTNV-1" source="Skrc7gYkLuCT7zbZgpwp-185" target="Skrc7gYkLuCT7zbZgpwp-191">
          <mxGeometry relative="1" as="geometry" />
        </mxCell>
        <mxCell id="Skrc7gYkLuCT7zbZgpwp-298" value="yes" style="edgeLabel;html=1;align=center;verticalAlign=middle;resizable=0;points=[];" vertex="1" connectable="0" parent="Skrc7gYkLuCT7zbZgpwp-192">
          <mxGeometry x="-0.1469" relative="1" as="geometry">
            <mxPoint as="offset" />
          </mxGeometry>
        </mxCell>
        <mxCell id="Skrc7gYkLuCT7zbZgpwp-185" value="0&amp;lt;= item dan &amp;lt; 5" style="rhombus;whiteSpace=wrap;html=1;" vertex="1" parent="WIyWlLk6GJQsqaUBKTNV-1">
          <mxGeometry x="-201.75" y="2631" width="80" height="80" as="geometry" />
        </mxCell>
        <mxCell id="Skrc7gYkLuCT7zbZgpwp-196" style="edgeStyle=orthogonalEdgeStyle;rounded=0;orthogonalLoop=1;jettySize=auto;html=1;exitX=0;exitY=0.5;exitDx=0;exitDy=0;" edge="1" parent="WIyWlLk6GJQsqaUBKTNV-1" source="Skrc7gYkLuCT7zbZgpwp-186" target="Skrc7gYkLuCT7zbZgpwp-75">
          <mxGeometry relative="1" as="geometry">
            <Array as="points">
              <mxPoint x="-310" y="2671" />
              <mxPoint x="-310" y="2760" />
              <mxPoint x="-420" y="2760" />
              <mxPoint x="-420" y="1110" />
            </Array>
          </mxGeometry>
        </mxCell>
        <mxCell id="Skrc7gYkLuCT7zbZgpwp-186" value="OUTPUT&lt;div&gt;barang tidak ditemukan&lt;/div&gt;" style="shape=parallelogram;perimeter=parallelogramPerimeter;whiteSpace=wrap;html=1;fixedSize=1;" vertex="1" parent="WIyWlLk6GJQsqaUBKTNV-1">
          <mxGeometry x="-370" y="2641" width="120" height="60" as="geometry" />
        </mxCell>
        <mxCell id="Skrc7gYkLuCT7zbZgpwp-194" value="" style="edgeStyle=orthogonalEdgeStyle;rounded=0;orthogonalLoop=1;jettySize=auto;html=1;" edge="1" parent="WIyWlLk6GJQsqaUBKTNV-1" source="Skrc7gYkLuCT7zbZgpwp-191" target="Skrc7gYkLuCT7zbZgpwp-193">
          <mxGeometry relative="1" as="geometry" />
        </mxCell>
        <mxCell id="Skrc7gYkLuCT7zbZgpwp-191" value="menghapus nama dan harga sembako yang dipilih" style="whiteSpace=wrap;html=1;" vertex="1" parent="WIyWlLk6GJQsqaUBKTNV-1">
          <mxGeometry x="-61.75" y="2641" width="120" height="60" as="geometry" />
        </mxCell>
        <mxCell id="Skrc7gYkLuCT7zbZgpwp-195" style="edgeStyle=orthogonalEdgeStyle;rounded=0;orthogonalLoop=1;jettySize=auto;html=1;exitX=0;exitY=0.5;exitDx=0;exitDy=0;" edge="1" parent="WIyWlLk6GJQsqaUBKTNV-1" source="Skrc7gYkLuCT7zbZgpwp-193" target="Skrc7gYkLuCT7zbZgpwp-75">
          <mxGeometry relative="1" as="geometry">
            <Array as="points">
              <mxPoint x="-2" y="2761" />
              <mxPoint x="-2" y="2810" />
              <mxPoint x="-420" y="2810" />
              <mxPoint x="-420" y="1110" />
            </Array>
          </mxGeometry>
        </mxCell>
        <mxCell id="Skrc7gYkLuCT7zbZgpwp-193" value="barang nomer &quot;item&quot; berhasil dihapus" style="shape=parallelogram;perimeter=parallelogramPerimeter;whiteSpace=wrap;html=1;fixedSize=1;" vertex="1" parent="WIyWlLk6GJQsqaUBKTNV-1">
          <mxGeometry x="-71.25" y="2731" width="139" height="60" as="geometry" />
        </mxCell>
        <mxCell id="Skrc7gYkLuCT7zbZgpwp-262" style="edgeStyle=orthogonalEdgeStyle;rounded=0;orthogonalLoop=1;jettySize=auto;html=1;exitX=0.438;exitY=1.019;exitDx=0;exitDy=0;entryX=0;entryY=0.5;entryDx=0;entryDy=0;entryPerimeter=0;exitPerimeter=0;" edge="1" parent="WIyWlLk6GJQsqaUBKTNV-1" source="Skrc7gYkLuCT7zbZgpwp-197" target="Skrc7gYkLuCT7zbZgpwp-259">
          <mxGeometry relative="1" as="geometry">
            <mxPoint x="430" y="2390.0000000000005" as="targetPoint" />
            <Array as="points">
              <mxPoint x="298" y="2989" />
            </Array>
          </mxGeometry>
        </mxCell>
        <mxCell id="Skrc7gYkLuCT7zbZgpwp-197" value="anda berhasil keluar dari program" style="shape=parallelogram;perimeter=parallelogramPerimeter;whiteSpace=wrap;html=1;fixedSize=1;" vertex="1" parent="WIyWlLk6GJQsqaUBKTNV-1">
          <mxGeometry x="230" y="2831" width="155" height="60" as="geometry" />
        </mxCell>
        <mxCell id="Skrc7gYkLuCT7zbZgpwp-202" style="edgeStyle=orthogonalEdgeStyle;rounded=0;orthogonalLoop=1;jettySize=auto;html=1;exitX=0;exitY=0.5;exitDx=0;exitDy=0;" edge="1" parent="WIyWlLk6GJQsqaUBKTNV-1" source="Skrc7gYkLuCT7zbZgpwp-199" target="Skrc7gYkLuCT7zbZgpwp-75">
          <mxGeometry relative="1" as="geometry">
            <Array as="points">
              <mxPoint x="-420" y="2861" />
              <mxPoint x="-420" y="1110" />
            </Array>
          </mxGeometry>
        </mxCell>
        <mxCell id="Skrc7gYkLuCT7zbZgpwp-199" value="pilihan tidak&amp;nbsp;&lt;div&gt;valid&lt;/div&gt;" style="shape=parallelogram;perimeter=parallelogramPerimeter;whiteSpace=wrap;html=1;fixedSize=1;" vertex="1" parent="WIyWlLk6GJQsqaUBKTNV-1">
          <mxGeometry x="-15" y="2831" width="105" height="60" as="geometry" />
        </mxCell>
        <mxCell id="Skrc7gYkLuCT7zbZgpwp-206" value="" style="edgeStyle=orthogonalEdgeStyle;rounded=0;orthogonalLoop=1;jettySize=auto;html=1;" edge="1" parent="WIyWlLk6GJQsqaUBKTNV-1" source="Skrc7gYkLuCT7zbZgpwp-203" target="Skrc7gYkLuCT7zbZgpwp-205">
          <mxGeometry relative="1" as="geometry" />
        </mxCell>
        <mxCell id="Skrc7gYkLuCT7zbZgpwp-310" value="yes" style="edgeLabel;html=1;align=center;verticalAlign=middle;resizable=0;points=[];" vertex="1" connectable="0" parent="Skrc7gYkLuCT7zbZgpwp-206">
          <mxGeometry x="-0.2897" y="1" relative="1" as="geometry">
            <mxPoint as="offset" />
          </mxGeometry>
        </mxCell>
        <mxCell id="Skrc7gYkLuCT7zbZgpwp-212" value="" style="edgeStyle=orthogonalEdgeStyle;rounded=0;orthogonalLoop=1;jettySize=auto;html=1;" edge="1" parent="WIyWlLk6GJQsqaUBKTNV-1" source="Skrc7gYkLuCT7zbZgpwp-203" target="Skrc7gYkLuCT7zbZgpwp-211">
          <mxGeometry relative="1" as="geometry" />
        </mxCell>
        <mxCell id="Skrc7gYkLuCT7zbZgpwp-311" value="no" style="edgeLabel;html=1;align=center;verticalAlign=middle;resizable=0;points=[];" vertex="1" connectable="0" parent="Skrc7gYkLuCT7zbZgpwp-212">
          <mxGeometry x="-0.4712" y="-1" relative="1" as="geometry">
            <mxPoint as="offset" />
          </mxGeometry>
        </mxCell>
        <mxCell id="Skrc7gYkLuCT7zbZgpwp-203" value="1" style="rhombus;whiteSpace=wrap;html=1;" vertex="1" parent="WIyWlLk6GJQsqaUBKTNV-1">
          <mxGeometry x="634" y="1560" width="80" height="80" as="geometry" />
        </mxCell>
        <mxCell id="Skrc7gYkLuCT7zbZgpwp-208" value="" style="edgeStyle=orthogonalEdgeStyle;rounded=0;orthogonalLoop=1;jettySize=auto;html=1;" edge="1" parent="WIyWlLk6GJQsqaUBKTNV-1" source="Skrc7gYkLuCT7zbZgpwp-205" target="Skrc7gYkLuCT7zbZgpwp-207">
          <mxGeometry relative="1" as="geometry" />
        </mxCell>
        <mxCell id="Skrc7gYkLuCT7zbZgpwp-210" value="" style="edgeStyle=orthogonalEdgeStyle;rounded=0;orthogonalLoop=1;jettySize=auto;html=1;" edge="1" parent="WIyWlLk6GJQsqaUBKTNV-1" source="Skrc7gYkLuCT7zbZgpwp-205" target="Skrc7gYkLuCT7zbZgpwp-209">
          <mxGeometry relative="1" as="geometry" />
        </mxCell>
        <mxCell id="Skrc7gYkLuCT7zbZgpwp-205" value="sumbako list&amp;nbsp;&lt;div&gt;kosong&lt;/div&gt;" style="rhombus;whiteSpace=wrap;html=1;" vertex="1" parent="WIyWlLk6GJQsqaUBKTNV-1">
          <mxGeometry x="794" y="1560" width="80" height="80" as="geometry" />
        </mxCell>
        <mxCell id="Skrc7gYkLuCT7zbZgpwp-207" value="OUTPUT&lt;div&gt;sumbako tidak tersedia&lt;/div&gt;" style="shape=parallelogram;perimeter=parallelogramPerimeter;whiteSpace=wrap;html=1;fixedSize=1;" vertex="1" parent="WIyWlLk6GJQsqaUBKTNV-1">
          <mxGeometry x="904" y="1570" width="120" height="60" as="geometry" />
        </mxCell>
        <mxCell id="Skrc7gYkLuCT7zbZgpwp-209" value="OUTPUT&lt;div&gt;menampilkan isi&lt;/div&gt;&lt;div&gt;&amp;nbsp;list sembako&lt;/div&gt;" style="shape=parallelogram;perimeter=parallelogramPerimeter;whiteSpace=wrap;html=1;fixedSize=1;" vertex="1" parent="WIyWlLk6GJQsqaUBKTNV-1">
          <mxGeometry x="774" y="1670" width="120" height="60" as="geometry" />
        </mxCell>
        <mxCell id="Skrc7gYkLuCT7zbZgpwp-218" style="edgeStyle=orthogonalEdgeStyle;rounded=0;orthogonalLoop=1;jettySize=auto;html=1;exitX=1;exitY=0.5;exitDx=0;exitDy=0;entryX=0;entryY=0.5;entryDx=0;entryDy=0;" edge="1" parent="WIyWlLk6GJQsqaUBKTNV-1" source="Skrc7gYkLuCT7zbZgpwp-211" target="Skrc7gYkLuCT7zbZgpwp-216">
          <mxGeometry relative="1" as="geometry" />
        </mxCell>
        <mxCell id="Skrc7gYkLuCT7zbZgpwp-303" value="yes" style="edgeLabel;html=1;align=center;verticalAlign=middle;resizable=0;points=[];" vertex="1" connectable="0" parent="Skrc7gYkLuCT7zbZgpwp-218">
          <mxGeometry x="-0.3346" relative="1" as="geometry">
            <mxPoint as="offset" />
          </mxGeometry>
        </mxCell>
        <mxCell id="Skrc7gYkLuCT7zbZgpwp-249" value="" style="edgeStyle=orthogonalEdgeStyle;rounded=0;orthogonalLoop=1;jettySize=auto;html=1;" edge="1" parent="WIyWlLk6GJQsqaUBKTNV-1" source="Skrc7gYkLuCT7zbZgpwp-211" target="Skrc7gYkLuCT7zbZgpwp-248">
          <mxGeometry relative="1" as="geometry" />
        </mxCell>
        <mxCell id="Skrc7gYkLuCT7zbZgpwp-302" value="no" style="edgeLabel;html=1;align=center;verticalAlign=middle;resizable=0;points=[];" vertex="1" connectable="0" parent="Skrc7gYkLuCT7zbZgpwp-249">
          <mxGeometry x="-0.3717" relative="1" as="geometry">
            <mxPoint as="offset" />
          </mxGeometry>
        </mxCell>
        <mxCell id="Skrc7gYkLuCT7zbZgpwp-211" value="2" style="rhombus;whiteSpace=wrap;html=1;" vertex="1" parent="WIyWlLk6GJQsqaUBKTNV-1">
          <mxGeometry x="634" y="1739" width="80" height="80" as="geometry" />
        </mxCell>
        <mxCell id="Skrc7gYkLuCT7zbZgpwp-220" style="edgeStyle=orthogonalEdgeStyle;rounded=0;orthogonalLoop=1;jettySize=auto;html=1;exitX=0.5;exitY=1;exitDx=0;exitDy=0;entryX=0.5;entryY=0;entryDx=0;entryDy=0;" edge="1" parent="WIyWlLk6GJQsqaUBKTNV-1" source="Skrc7gYkLuCT7zbZgpwp-216" target="Skrc7gYkLuCT7zbZgpwp-219">
          <mxGeometry relative="1" as="geometry" />
        </mxCell>
        <mxCell id="Skrc7gYkLuCT7zbZgpwp-216" value="LOOP" style="ellipse;whiteSpace=wrap;html=1;" vertex="1" parent="WIyWlLk6GJQsqaUBKTNV-1">
          <mxGeometry x="809" y="1739" width="95" height="80" as="geometry" />
        </mxCell>
        <mxCell id="Skrc7gYkLuCT7zbZgpwp-222" value="" style="edgeStyle=orthogonalEdgeStyle;rounded=0;orthogonalLoop=1;jettySize=auto;html=1;" edge="1" parent="WIyWlLk6GJQsqaUBKTNV-1" source="Skrc7gYkLuCT7zbZgpwp-219" target="Skrc7gYkLuCT7zbZgpwp-221">
          <mxGeometry relative="1" as="geometry" />
        </mxCell>
        <mxCell id="Skrc7gYkLuCT7zbZgpwp-219" value="OUTPUT&lt;div&gt;menampilkan isi&amp;nbsp;&lt;/div&gt;&lt;div&gt;list sembako&lt;/div&gt;" style="shape=parallelogram;perimeter=parallelogramPerimeter;whiteSpace=wrap;html=1;fixedSize=1;" vertex="1" parent="WIyWlLk6GJQsqaUBKTNV-1">
          <mxGeometry x="796.5" y="1869" width="120" height="60" as="geometry" />
        </mxCell>
        <mxCell id="Skrc7gYkLuCT7zbZgpwp-224" value="" style="edgeStyle=orthogonalEdgeStyle;rounded=0;orthogonalLoop=1;jettySize=auto;html=1;" edge="1" parent="WIyWlLk6GJQsqaUBKTNV-1" source="Skrc7gYkLuCT7zbZgpwp-221" target="Skrc7gYkLuCT7zbZgpwp-223">
          <mxGeometry relative="1" as="geometry" />
        </mxCell>
        <mxCell id="Skrc7gYkLuCT7zbZgpwp-221" value="INPUT&lt;div&gt;barang yang ingin dibeli&lt;/div&gt;&lt;div&gt;get beli&lt;/div&gt;" style="shape=parallelogram;perimeter=parallelogramPerimeter;whiteSpace=wrap;html=1;fixedSize=1;" vertex="1" parent="WIyWlLk6GJQsqaUBKTNV-1">
          <mxGeometry x="954" y="1869" width="120" height="60" as="geometry" />
        </mxCell>
        <mxCell id="Skrc7gYkLuCT7zbZgpwp-233" value="" style="edgeStyle=orthogonalEdgeStyle;rounded=0;orthogonalLoop=1;jettySize=auto;html=1;" edge="1" parent="WIyWlLk6GJQsqaUBKTNV-1" source="Skrc7gYkLuCT7zbZgpwp-223" target="Skrc7gYkLuCT7zbZgpwp-232">
          <mxGeometry relative="1" as="geometry" />
        </mxCell>
        <mxCell id="Skrc7gYkLuCT7zbZgpwp-304" value="yes" style="edgeLabel;html=1;align=center;verticalAlign=middle;resizable=0;points=[];" vertex="1" connectable="0" parent="Skrc7gYkLuCT7zbZgpwp-233">
          <mxGeometry x="-0.0449" y="-2" relative="1" as="geometry">
            <mxPoint x="-8" y="-1" as="offset" />
          </mxGeometry>
        </mxCell>
        <mxCell id="Skrc7gYkLuCT7zbZgpwp-238" value="" style="edgeStyle=orthogonalEdgeStyle;rounded=0;orthogonalLoop=1;jettySize=auto;html=1;" edge="1" parent="WIyWlLk6GJQsqaUBKTNV-1" source="Skrc7gYkLuCT7zbZgpwp-223" target="Skrc7gYkLuCT7zbZgpwp-237">
          <mxGeometry relative="1" as="geometry" />
        </mxCell>
        <mxCell id="Skrc7gYkLuCT7zbZgpwp-305" value="no" style="edgeLabel;html=1;align=center;verticalAlign=middle;resizable=0;points=[];" vertex="1" connectable="0" parent="Skrc7gYkLuCT7zbZgpwp-238">
          <mxGeometry x="0.1496" y="2" relative="1" as="geometry">
            <mxPoint as="offset" />
          </mxGeometry>
        </mxCell>
        <mxCell id="Skrc7gYkLuCT7zbZgpwp-223" value="0 &amp;lt;= beli&amp;nbsp;&lt;div&gt;and&amp;nbsp;&lt;div&gt;beli &amp;lt; 5&lt;/div&gt;&lt;/div&gt;" style="rhombus;whiteSpace=wrap;html=1;" vertex="1" parent="WIyWlLk6GJQsqaUBKTNV-1">
          <mxGeometry x="974" y="1950" width="80" height="80" as="geometry" />
        </mxCell>
        <mxCell id="Skrc7gYkLuCT7zbZgpwp-230" value="" style="edgeStyle=orthogonalEdgeStyle;rounded=0;orthogonalLoop=1;jettySize=auto;html=1;" edge="1" parent="WIyWlLk6GJQsqaUBKTNV-1" source="Skrc7gYkLuCT7zbZgpwp-227" target="Skrc7gYkLuCT7zbZgpwp-229">
          <mxGeometry relative="1" as="geometry" />
        </mxCell>
        <mxCell id="Skrc7gYkLuCT7zbZgpwp-227" value="menjumlahkan total belanjaan" style="whiteSpace=wrap;html=1;" vertex="1" parent="WIyWlLk6GJQsqaUBKTNV-1">
          <mxGeometry x="1094" y="2042" width="120" height="60" as="geometry" />
        </mxCell>
        <mxCell id="Skrc7gYkLuCT7zbZgpwp-242" style="edgeStyle=orthogonalEdgeStyle;rounded=0;orthogonalLoop=1;jettySize=auto;html=1;exitX=1;exitY=0.5;exitDx=0;exitDy=0;entryX=1;entryY=0.5;entryDx=0;entryDy=0;" edge="1" parent="WIyWlLk6GJQsqaUBKTNV-1" source="Skrc7gYkLuCT7zbZgpwp-229" target="Skrc7gYkLuCT7zbZgpwp-216">
          <mxGeometry relative="1" as="geometry">
            <Array as="points">
              <mxPoint x="1374" y="2072" />
              <mxPoint x="1374" y="1779" />
            </Array>
          </mxGeometry>
        </mxCell>
        <mxCell id="Skrc7gYkLuCT7zbZgpwp-229" value="OUTPUT&lt;div&gt;Barang &quot;beli&quot;&amp;nbsp;&lt;/div&gt;&lt;div&gt;berhasil&amp;nbsp;&lt;span style=&quot;background-color: initial;&quot;&gt;ditambahkan&lt;/span&gt;&lt;/div&gt;&lt;div&gt;ke total&lt;/div&gt;" style="shape=parallelogram;perimeter=parallelogramPerimeter;whiteSpace=wrap;html=1;fixedSize=1;" vertex="1" parent="WIyWlLk6GJQsqaUBKTNV-1">
          <mxGeometry x="1244" y="2042" width="120" height="60" as="geometry" />
        </mxCell>
        <mxCell id="Skrc7gYkLuCT7zbZgpwp-236" style="edgeStyle=orthogonalEdgeStyle;rounded=0;orthogonalLoop=1;jettySize=auto;html=1;exitX=0.5;exitY=1;exitDx=0;exitDy=0;" edge="1" parent="WIyWlLk6GJQsqaUBKTNV-1" source="Skrc7gYkLuCT7zbZgpwp-232" target="Skrc7gYkLuCT7zbZgpwp-227">
          <mxGeometry relative="1" as="geometry" />
        </mxCell>
        <mxCell id="Skrc7gYkLuCT7zbZgpwp-232" value="INPUT&lt;div&gt;jumlah barang&lt;/div&gt;&lt;div&gt;yang ingin&lt;/div&gt;&lt;div&gt;&amp;nbsp;dibeli&lt;/div&gt;" style="shape=parallelogram;perimeter=parallelogramPerimeter;whiteSpace=wrap;html=1;fixedSize=1;" vertex="1" parent="WIyWlLk6GJQsqaUBKTNV-1">
          <mxGeometry x="1094" y="1959.5" width="120" height="60" as="geometry" />
        </mxCell>
        <mxCell id="Skrc7gYkLuCT7zbZgpwp-241" value="" style="edgeStyle=orthogonalEdgeStyle;rounded=0;orthogonalLoop=1;jettySize=auto;html=1;" edge="1" parent="WIyWlLk6GJQsqaUBKTNV-1" source="Skrc7gYkLuCT7zbZgpwp-237" target="Skrc7gYkLuCT7zbZgpwp-240">
          <mxGeometry relative="1" as="geometry" />
        </mxCell>
        <mxCell id="Skrc7gYkLuCT7zbZgpwp-307" value="no" style="edgeLabel;html=1;align=center;verticalAlign=middle;resizable=0;points=[];" vertex="1" connectable="0" parent="Skrc7gYkLuCT7zbZgpwp-241">
          <mxGeometry x="-0.1805" y="-2" relative="1" as="geometry">
            <mxPoint as="offset" />
          </mxGeometry>
        </mxCell>
        <mxCell id="Skrc7gYkLuCT7zbZgpwp-244" value="" style="edgeStyle=orthogonalEdgeStyle;rounded=0;orthogonalLoop=1;jettySize=auto;html=1;" edge="1" parent="WIyWlLk6GJQsqaUBKTNV-1" source="Skrc7gYkLuCT7zbZgpwp-237" target="Skrc7gYkLuCT7zbZgpwp-243">
          <mxGeometry relative="1" as="geometry" />
        </mxCell>
        <mxCell id="Skrc7gYkLuCT7zbZgpwp-306" value="yes" style="edgeLabel;html=1;align=center;verticalAlign=middle;resizable=0;points=[];" vertex="1" connectable="0" parent="Skrc7gYkLuCT7zbZgpwp-244">
          <mxGeometry x="-0.3333" relative="1" as="geometry">
            <mxPoint as="offset" />
          </mxGeometry>
        </mxCell>
        <mxCell id="Skrc7gYkLuCT7zbZgpwp-237" value="beli == -1" style="rhombus;whiteSpace=wrap;html=1;" vertex="1" parent="WIyWlLk6GJQsqaUBKTNV-1">
          <mxGeometry x="864" y="1950.5" width="80" height="79" as="geometry" />
        </mxCell>
        <mxCell id="Skrc7gYkLuCT7zbZgpwp-240" value="OUTPUT&lt;div&gt;barang tidak ditemukkan, silahkan pilih barang yang tersedia&lt;/div&gt;" style="shape=parallelogram;perimeter=parallelogramPerimeter;whiteSpace=wrap;html=1;fixedSize=1;" vertex="1" parent="WIyWlLk6GJQsqaUBKTNV-1">
          <mxGeometry x="714" y="1954.75" width="120" height="69.5" as="geometry" />
        </mxCell>
        <mxCell id="Skrc7gYkLuCT7zbZgpwp-247" style="edgeStyle=orthogonalEdgeStyle;rounded=0;orthogonalLoop=1;jettySize=auto;html=1;exitX=1;exitY=0.5;exitDx=0;exitDy=0;" edge="1" parent="WIyWlLk6GJQsqaUBKTNV-1" source="Skrc7gYkLuCT7zbZgpwp-243" target="Skrc7gYkLuCT7zbZgpwp-216">
          <mxGeometry relative="1" as="geometry">
            <Array as="points">
              <mxPoint x="1374" y="2109" />
              <mxPoint x="1374" y="1779" />
            </Array>
          </mxGeometry>
        </mxCell>
        <mxCell id="Skrc7gYkLuCT7zbZgpwp-243" value="OUTPUT&lt;div&gt;total pembelian anda&amp;nbsp;&lt;/div&gt;&lt;div&gt;adalah &quot;total&amp;nbsp;&lt;/div&gt;&lt;div&gt;belanja&quot;&lt;/div&gt;" style="shape=parallelogram;perimeter=parallelogramPerimeter;whiteSpace=wrap;html=1;fixedSize=1;" vertex="1" parent="WIyWlLk6GJQsqaUBKTNV-1">
          <mxGeometry x="844" y="2079" width="120" height="60" as="geometry" />
        </mxCell>
        <mxCell id="Skrc7gYkLuCT7zbZgpwp-255" value="" style="edgeStyle=orthogonalEdgeStyle;rounded=0;orthogonalLoop=1;jettySize=auto;html=1;" edge="1" parent="WIyWlLk6GJQsqaUBKTNV-1" source="Skrc7gYkLuCT7zbZgpwp-248" target="Skrc7gYkLuCT7zbZgpwp-254">
          <mxGeometry relative="1" as="geometry" />
        </mxCell>
        <mxCell id="Skrc7gYkLuCT7zbZgpwp-309" value="no" style="edgeLabel;html=1;align=center;verticalAlign=middle;resizable=0;points=[];" vertex="1" connectable="0" parent="Skrc7gYkLuCT7zbZgpwp-255">
          <mxGeometry x="-0.4431" y="3" relative="1" as="geometry">
            <mxPoint as="offset" />
          </mxGeometry>
        </mxCell>
        <mxCell id="Skrc7gYkLuCT7zbZgpwp-257" style="edgeStyle=orthogonalEdgeStyle;rounded=0;orthogonalLoop=1;jettySize=auto;html=1;exitX=0;exitY=0.5;exitDx=0;exitDy=0;entryX=1;entryY=0.5;entryDx=0;entryDy=0;" edge="1" parent="WIyWlLk6GJQsqaUBKTNV-1" source="Skrc7gYkLuCT7zbZgpwp-248" target="Skrc7gYkLuCT7zbZgpwp-250">
          <mxGeometry relative="1" as="geometry" />
        </mxCell>
        <mxCell id="Skrc7gYkLuCT7zbZgpwp-308" value="yes" style="edgeLabel;html=1;align=center;verticalAlign=middle;resizable=0;points=[];" vertex="1" connectable="0" parent="Skrc7gYkLuCT7zbZgpwp-257">
          <mxGeometry x="-0.2802" y="-2" relative="1" as="geometry">
            <mxPoint as="offset" />
          </mxGeometry>
        </mxCell>
        <mxCell id="Skrc7gYkLuCT7zbZgpwp-248" value="3" style="rhombus;whiteSpace=wrap;html=1;" vertex="1" parent="WIyWlLk6GJQsqaUBKTNV-1">
          <mxGeometry x="634" y="1859" width="80" height="80" as="geometry" />
        </mxCell>
        <mxCell id="Skrc7gYkLuCT7zbZgpwp-250" value="OUTPUT&lt;div&gt;Anda telah keluar&amp;nbsp;&lt;/div&gt;&lt;div&gt;dari program&lt;/div&gt;" style="shape=parallelogram;perimeter=parallelogramPerimeter;whiteSpace=wrap;html=1;fixedSize=1;" vertex="1" parent="WIyWlLk6GJQsqaUBKTNV-1">
          <mxGeometry x="397" y="1869" width="120" height="60" as="geometry" />
        </mxCell>
        <mxCell id="Skrc7gYkLuCT7zbZgpwp-261" style="edgeStyle=orthogonalEdgeStyle;rounded=0;orthogonalLoop=1;jettySize=auto;html=1;exitX=0.5;exitY=1;exitDx=0;exitDy=0;entryX=0;entryY=0.5;entryDx=0;entryDy=0;entryPerimeter=0;" edge="1" parent="WIyWlLk6GJQsqaUBKTNV-1" source="Skrc7gYkLuCT7zbZgpwp-252" target="Skrc7gYkLuCT7zbZgpwp-259">
          <mxGeometry relative="1" as="geometry" />
        </mxCell>
        <mxCell id="Skrc7gYkLuCT7zbZgpwp-252" value="OUTPUT&lt;div&gt;terima kasih telah mencoba layanan&amp;nbsp;&lt;/div&gt;&lt;div&gt;kami&lt;/div&gt;" style="shape=parallelogram;perimeter=parallelogramPerimeter;whiteSpace=wrap;html=1;fixedSize=1;" vertex="1" parent="WIyWlLk6GJQsqaUBKTNV-1">
          <mxGeometry x="385" y="1964.25" width="120" height="60" as="geometry" />
        </mxCell>
        <mxCell id="Skrc7gYkLuCT7zbZgpwp-256" style="edgeStyle=orthogonalEdgeStyle;rounded=0;orthogonalLoop=1;jettySize=auto;html=1;exitX=0.5;exitY=1;exitDx=0;exitDy=0;" edge="1" parent="WIyWlLk6GJQsqaUBKTNV-1" source="Skrc7gYkLuCT7zbZgpwp-254" target="Skrc7gYkLuCT7zbZgpwp-75">
          <mxGeometry relative="1" as="geometry">
            <Array as="points">
              <mxPoint x="680" y="2089" />
              <mxPoint x="680" y="2170" />
              <mxPoint x="1400" y="2170" />
              <mxPoint x="1400" y="1110" />
            </Array>
          </mxGeometry>
        </mxCell>
        <mxCell id="Skrc7gYkLuCT7zbZgpwp-254" value="OUTPUT&lt;div&gt;pilihan tidak valid&amp;nbsp;&lt;/div&gt;&lt;div&gt;silahkan pilih&lt;/div&gt;&lt;div&gt;opsi yang tersedia&lt;/div&gt;" style="shape=parallelogram;perimeter=parallelogramPerimeter;whiteSpace=wrap;html=1;fixedSize=1;" vertex="1" parent="WIyWlLk6GJQsqaUBKTNV-1">
          <mxGeometry x="614" y="2029" width="120" height="60" as="geometry" />
        </mxCell>
        <mxCell id="Skrc7gYkLuCT7zbZgpwp-258" style="edgeStyle=orthogonalEdgeStyle;rounded=0;orthogonalLoop=1;jettySize=auto;html=1;exitX=0.5;exitY=1;exitDx=0;exitDy=0;entryX=0.579;entryY=0.059;entryDx=0;entryDy=0;entryPerimeter=0;" edge="1" parent="WIyWlLk6GJQsqaUBKTNV-1" source="Skrc7gYkLuCT7zbZgpwp-250" target="Skrc7gYkLuCT7zbZgpwp-252">
          <mxGeometry relative="1" as="geometry" />
        </mxCell>
        <mxCell id="Skrc7gYkLuCT7zbZgpwp-259" value="END" style="strokeWidth=2;html=1;shape=mxgraph.flowchart.terminator;whiteSpace=wrap;" vertex="1" parent="WIyWlLk6GJQsqaUBKTNV-1">
          <mxGeometry x="580" y="2960" width="100" height="58.5" as="geometry" />
        </mxCell>
        <mxCell id="Skrc7gYkLuCT7zbZgpwp-271" value="users = []" style="whiteSpace=wrap;html=1;" vertex="1" parent="WIyWlLk6GJQsqaUBKTNV-1">
          <mxGeometry x="70" y="190" width="120" height="30" as="geometry" />
        </mxCell>
      </root>
    </mxGraphModel>
  </diagram>
</mxfile>
